<svg width="128" height="32" viewBox="0 0 128 32" fill="none" xmlns="http://www.w3.org/2000/svg">
<path d="M17.3182 31.5852C16.7493 31.1795 16.7617 31.0737 17.8828 26.758C18.5133 24.3312 19.0947 21.5745 19.1748 20.6321L19.3206 18.9185L17.8187 21.7602C15.1435 26.8218 13.1736 29.2796 10.624 30.7367C9.02628 31.6498 6.06614 31.9573 4.08358 31.4159C0.0414238 30.3122 -1.40162 25.0372 1.60038 22.3386C3.40828 20.7134 8.57932 21.3644 8.00006 23.1443C7.8092 23.7307 7.65288 23.778 6.4738 23.6055C5.32476 23.4375 5.06354 23.5077 4.38875 24.1658C3.79193 24.7478 3.61732 25.2146 3.61732 26.2282C3.61732 27.3302 3.76461 27.6591 4.54475 28.2993C6.14436 29.6119 8.60203 29.1813 10.582 27.2414C11.9498 25.9012 14.304 21.6818 17.3182 15.1678C20.45 8.39986 22.3351 4.74622 23.9725 2.27092C25.4567 0.027209 25.6923 -0.162635 26.6895 0.0814547C27.8188 0.357861 27.8777 1.34948 26.8924 3.49564C25.0342 7.54285 23.6983 12.2997 23.3455 16.1258L23.1423 18.3306L26.0886 14.215C29.8276 8.99215 31.9888 6.3776 35.3828 2.97082C37.549 0.796525 38.2638 0.251636 38.9501 0.251636C40.0295 0.251636 40.3523 0.977694 39.7236 1.99145C39.4648 2.40884 37.9369 4.86691 36.3284 7.45381C30.3665 17.0423 27.6674 24.0813 28.6241 27.5461C29.0357 29.037 29.7292 29.276 31.4164 28.5084C33.2567 27.6712 34.1885 26.7361 35.2761 24.6349C37.265 20.7925 41.21 17.8896 44.4427 17.8896C45.2911 17.8896 46.2565 18.0748 46.5879 18.3012C47.1044 18.654 47.2728 18.654 47.7676 18.3012C48.5198 17.7648 49.8664 17.7746 50.3305 18.3199C50.6279 18.6694 50.3846 19.3454 49.0339 21.921C48.1194 23.6649 47.0575 25.6448 46.6742 26.3207C46.2908 26.9967 46.0699 27.6401 46.1832 27.7506C46.8732 28.4235 49.9893 25.1921 53.1615 20.5142C54.2582 18.897 54.2664 18.8626 53.8131 17.8044C53.2239 16.4292 53.2229 13.698 53.8111 12.5886C54.3053 11.6568 55.6491 10.8344 56.6779 10.8344C57.0304 10.8344 57.7154 11.2211 58.2 11.6937C58.9194 12.3953 59.0811 12.8021 59.0811 13.9102C59.0811 14.6872 58.8234 15.76 58.4783 16.4198C57.6846 17.9369 57.7019 17.994 58.8979 17.8047C60.1358 17.6088 61.1912 18.2314 61.1912 19.1577C61.1912 19.5146 60.2336 20.9894 59.0549 22.4481C55.0653 27.3852 54.4212 29.8616 57.4472 28.6286C59.4193 27.825 60.4176 26.8663 65.1113 21.2685C68.5296 17.1917 69.8367 15.8319 70.3371 15.8319C71.1078 15.8319 72.3442 16.5953 72.3442 17.0712C72.3442 17.2494 71.7797 18.1244 71.0898 19.0156L69.8353 20.6359L70.2355 21.982C70.4556 22.7223 70.6946 23.8902 70.7667 24.5773C70.8388 25.2645 70.9643 25.8267 71.0456 25.8267C71.1268 25.8267 71.9743 25.2925 72.9288 24.6395C74.3135 23.6923 74.8208 23.113 75.4387 21.7734C78.818 14.4473 81.4962 8.81669 81.8652 8.26222C82.3861 7.47961 84.1107 7.34575 84.7032 8.04194C85.1032 8.51202 85.0963 8.53119 81.8801 15.9129L80.5 19.0805L81.799 18.3381C83.2238 17.5238 84.3321 17.3963 85.059 17.9631C85.7437 18.497 86.2177 20.125 86.0046 21.2112C85.8121 22.1927 84.3901 25.0789 83.0425 27.223C82.5739 27.9688 82.4036 28.4724 82.6202 28.4724C83.4338 28.4724 85.5611 26.3658 86.3644 24.7645C87.4201 22.6601 90.6831 19.4065 92.691 18.4561C94.5946 17.555 97.0044 17.4818 97.9281 18.2971C98.4746 18.7794 98.5796 18.7924 98.7352 18.3971C99.115 17.4318 101.885 17.588 101.885 18.5748C101.885 18.798 100.935 20.7677 99.7747 22.952C98.6142 25.1363 97.6646 27.2099 97.6646 27.5602C97.6646 28.6839 98.4912 28.5906 100.088 27.2865C101.315 26.2849 101.903 25.4569 103.082 23.0673C106.017 17.1217 110.471 11.6448 114.541 8.97836C116.911 7.42574 119.066 7.58706 119.066 9.31699C119.066 10.2352 117.114 14.3399 115.774 16.2394C114.405 18.1802 111.34 20.9771 108.495 22.8817C105.368 24.9749 105.249 25.1069 105.019 26.7391C104.796 28.3305 105.568 29.2555 106.856 28.9401C108.201 28.6111 110.962 25.5435 112.724 22.4213C115.044 18.3129 116.196 16.5677 118.115 14.258C120.125 11.839 124.413 8.31696 125.679 8.04587C126.913 7.78144 127.772 8.09475 127.975 8.88342C128.188 9.70951 126.994 12.9511 125.661 15.1678C124.407 17.2523 120.26 21.3103 117.17 23.475C114.744 25.1753 114.233 26.0431 114.666 27.7271C115.225 29.9002 117.798 28.9925 120.618 25.6272C122.256 23.6723 122.512 23.4756 122.913 23.8668C123.565 24.5025 123.227 25.3802 121.44 27.6889C119.748 29.875 117.442 31.557 115.724 31.858C113.832 32.1897 111.818 30.9024 111.133 28.9231C111.079 28.7668 110.57 29.0665 110.002 29.5892C108.573 30.9035 106.214 32 104.817 32C103.926 32 103.437 31.7952 102.766 31.1407C102.281 30.6681 101.885 30.0067 101.885 29.6709C101.885 29.3351 101.811 29.0603 101.721 29.0603C101.631 29.0603 100.851 29.5803 99.9878 30.2157C97.336 32.1678 95.9517 32.3184 94.6849 30.7927L94.1772 30.1814L93.1327 30.7805C92.5582 31.11 91.4419 31.5202 90.652 31.692C88.9793 32.0558 87.7154 31.6703 86.5546 30.4421L85.8441 29.6902L84.6469 30.536C82.8193 31.8271 81.6164 32.1307 80.5197 31.5776C79.3854 31.0055 78.6722 30.0321 78.6814 29.0684C78.6853 28.6598 79.4992 26.8127 80.49 24.9637C81.4808 23.1148 82.2915 21.4943 82.2915 21.3626C82.2915 20.7983 81.4286 21.2241 79.9026 22.5416C78.4862 23.7644 78.0396 24.443 76.5678 27.6084C74.6245 31.788 73.8969 32.504 72.4196 31.6906C71.5548 31.2145 71.3496 30.1508 71.8902 28.9461C72.0538 28.5814 71.3905 28.9038 69.9568 29.8857C66.3461 32.3586 63.4375 32.5606 61.4419 30.4772L60.6361 29.636L59.0297 30.5737C57.8812 31.2441 56.9326 31.5489 55.7022 31.6432C54.1025 31.7657 53.9164 31.7119 53.0646 30.8812C52.3986 30.2317 52.1482 29.7109 52.1482 28.9755C52.1482 27.5644 53.9293 24.2415 55.7552 22.2462C56.712 21.2005 57.1587 20.5014 56.9501 20.3757C56.5452 20.1316 56.6907 19.9698 53.8116 23.8647C50.6355 28.1613 48.8091 30.0485 46.9543 30.9498C45.0708 31.8652 43.8195 31.9107 42.9305 31.0962L42.2649 30.4864L41.0391 31.0962C39.4429 31.8904 37.2533 31.8986 35.936 31.1153C35.3916 30.7916 34.8695 30.3318 34.7757 30.0935C34.6381 29.7439 34.361 29.824 33.341 30.5084C31.1946 31.9486 28.5885 32.2874 26.7555 31.3647C25.354 30.6591 24.8351 27.6206 25.4082 23.475L25.6317 21.8582L24.6886 23.475C22.0738 27.958 18.9513 32 18.1031 32C17.9914 32 17.6382 31.8133 17.3182 31.5852ZM66.48 28.9267C67.0807 28.3408 67.2191 27.9125 67.2157 26.6485C67.211 24.8459 66.9543 23.7081 66.5801 23.8304C66.049 24.004 63.6026 27.1631 63.6026 27.6753C63.6026 28.2529 64.8818 29.6483 65.4112 29.6483C65.5921 29.6483 66.073 29.3236 66.48 28.9267ZM93.0555 27.4485C95.5606 25.3574 97.3465 20.2386 95.6531 20.0034C93.4269 19.6942 89.216 24.3597 89.1327 27.2278C89.0726 29.2944 90.7323 29.3878 93.0555 27.4485ZM41.0408 27.9194C43.0821 26.6569 44.7643 24.0327 45.1102 21.5709C45.3151 20.1132 44.9359 19.7307 43.6081 20.0557C40.8469 20.7315 36.704 26.8251 37.9835 28.3286C38.5458 28.9894 39.522 28.8587 41.0408 27.9194ZM110.861 17.9631C113.015 15.8954 116.165 11.4224 115.467 11.4224C115.327 11.4224 114.142 12.5266 112.832 13.8762C110.547 16.2296 107.635 20.2413 108.211 20.2413C108.363 20.2413 109.556 19.2161 110.861 17.9631ZM120.71 17.4487C122.196 16.1165 125.183 11.4224 124.545 11.4224C123.673 11.4224 117.559 18.9695 117.559 20.0463C117.559 20.2209 118.195 19.774 118.971 19.0532C119.747 18.3324 120.53 17.6103 120.71 17.4487ZM56.6349 15.2149C56.9269 14.398 56.6776 13.1862 56.2175 13.1862C55.8333 13.1862 55.4501 14.5135 55.6185 15.2612C55.8694 16.3753 56.2259 16.3591 56.6349 15.2149Z" fill="#1A1F24"/>
</svg>
